<svg width="28" height="28" viewBox="0 0 28 28" fill="none" xmlns="http://www.w3.org/2000/svg">
<g clip-path="url(#clip0_1_461)">
<path d="M22.7267 14.4084C20.895 9.64835 14.3733 9.39169 15.9483 2.47335C16.065 1.96002 15.5167 1.56335 15.0733 1.83169C10.8383 4.32835 7.79334 9.33335 10.3483 15.89C10.5583 16.4267 9.92834 16.9284 9.47334 16.5784C7.36167 14.98 7.14001 12.6817 7.32667 11.0367C7.39667 10.43 6.60334 10.1384 6.26501 10.64C5.47167 11.8534 4.66667 13.8134 4.66667 16.765C5.11001 23.2984 10.6283 25.305 12.6117 25.5617C15.4467 25.9234 18.515 25.3984 20.72 23.38C23.1467 21.1284 24.0333 17.535 22.7267 14.4084ZM11.9 20.2767C13.58 19.8684 14.4433 18.655 14.6767 17.5817C15.0617 15.9134 13.5567 14.28 14.5717 11.6434C14.9567 13.825 18.3867 15.19 18.3867 17.57C18.48 20.5217 15.2833 23.0534 11.9 20.2767Z" fill="#EE5D50"/>
</g>
<defs>
<clipPath id="clip0_1_461">
<rect width="28" height="28" fill="white"/>
</clipPath>
</defs>
</svg>
