<svg width="34" height="34" viewBox="0 0 34 34" fill="none" xmlns="http://www.w3.org/2000/svg">
<path d="M9.28397 13.3136H9.55765C10.6113 13.3136 11.4734 14.1757 11.4734 15.2293V24.8082C11.4734 25.8618 10.6113 26.7239 9.55765 26.7239H9.28397C8.2303 26.7239 7.36821 25.8618 7.36821 24.8082V15.2293C7.36821 14.1757 8.2303 13.3136 9.28397 13.3136ZM16.947 7.56628C18.0007 7.56628 18.8628 8.42838 18.8628 9.48205V24.8082C18.8628 25.8618 18.0007 26.7239 16.947 26.7239C15.8934 26.7239 15.0313 25.8618 15.0313 24.8082V9.48205C15.0313 8.42838 15.8934 7.56628 16.947 7.56628ZM24.6101 18.5135C25.6638 18.5135 26.5259 19.3756 26.5259 20.4293V24.8082C26.5259 25.8618 25.6638 26.7239 24.6101 26.7239C23.5564 26.7239 22.6943 25.8618 22.6943 24.8082V20.4293C22.6943 19.3756 23.5564 18.5135 24.6101 18.5135Z" fill="#4318FF"/>
</svg>
