<svg width="34" height="34" viewBox="0 0 34 34" fill="none" xmlns="http://www.w3.org/2000/svg">
<path d="M16.6734 15.6398C13.5671 14.8325 12.5681 13.9978 12.5681 12.6978C12.5681 11.2062 13.9502 10.1662 16.2628 10.1662C18.206 10.1662 19.1775 10.9052 19.5333 12.082C19.6975 12.6293 20.1491 13.0399 20.7238 13.0399H21.1343C22.0375 13.0399 22.6806 12.1504 22.3659 11.302C21.7912 9.68728 20.4501 8.34625 18.3154 7.82625V6.88206C18.3154 5.74628 17.3986 4.82945 16.2628 4.82945C15.1271 4.82945 14.2102 5.74628 14.2102 6.88206V7.7852C11.5555 8.35993 9.42082 10.0841 9.42082 12.7251C9.42082 15.8861 12.0345 17.4598 15.8523 18.3766C19.2733 19.1977 19.9575 20.4019 19.9575 21.6745C19.9575 22.6187 19.287 24.1239 16.2628 24.1239C14.005 24.1239 12.8418 23.3166 12.3903 22.1671C12.185 21.6334 11.7197 21.2503 11.1587 21.2503H10.7755C9.85871 21.2503 9.21556 22.1808 9.55766 23.0292C10.3376 24.9313 12.1576 26.0534 14.2102 26.4913V27.4081C14.2102 28.5439 15.1271 29.4607 16.2628 29.4607C17.3986 29.4607 18.3154 28.5439 18.3154 27.4081V26.5186C20.9838 26.0123 23.1048 24.466 23.1048 21.6608C23.1048 17.7745 19.7796 16.4472 16.6734 15.6398Z" fill="#4318FF"/>
</svg>
