<svg width="28" height="28" viewBox="0 0 28 28" fill="none" xmlns="http://www.w3.org/2000/svg">
<g clip-path="url(#clip0_1_49)">
<path d="M25.6666 6.04336L12.3549 19.3667L7.40825 14.42L9.05325 12.775L12.3549 16.0767L24.0216 4.41003L25.6666 6.04336ZM13.9999 23.3334C8.85492 23.3334 4.66659 19.145 4.66659 14C4.66659 8.85503 8.85492 4.66669 13.9999 4.66669C15.8316 4.66669 17.5466 5.20336 18.9933 6.12503L20.6849 4.43336C18.7833 3.11503 16.4849 2.33336 13.9999 2.33336C7.55992 2.33336 2.33325 7.56003 2.33325 14C2.33325 20.44 7.55992 25.6667 13.9999 25.6667C16.0183 25.6667 17.9199 25.1534 19.5766 24.2434L17.8266 22.4934C16.6599 23.03 15.3649 23.3334 13.9999 23.3334ZM22.1666 17.5H18.6666V19.8334H22.1666V23.3334H24.4999V19.8334H27.9999V17.5H24.4999V14H22.1666V17.5Z" fill="white"/>
</g>
<defs>
<clipPath id="clip0_1_49">
<rect width="28" height="28" fill="white"/>
</clipPath>
</defs>
</svg>
