<svg width="56" height="56" viewBox="0 0 56 56" fill="none" xmlns="http://www.w3.org/2000/svg">
<circle cx="28" cy="28" r="28" fill="url(#paint0_linear_1_47)"/>
<g clip-path="url(#clip0_1_47)">
<path d="M39.6666 20.0434L26.3549 33.3667L21.4083 28.42L23.0533 26.775L26.3549 30.0767L38.0216 18.41L39.6666 20.0434ZM27.9999 37.3334C22.8549 37.3334 18.6666 33.145 18.6666 28C18.6666 22.855 22.8549 18.6667 27.9999 18.6667C29.8316 18.6667 31.5466 19.2034 32.9933 20.125L34.6849 18.4334C32.7833 17.115 30.4849 16.3334 27.9999 16.3334C21.5599 16.3334 16.3333 21.56 16.3333 28C16.3333 34.44 21.5599 39.6667 27.9999 39.6667C30.0183 39.6667 31.9199 39.1534 33.5766 38.2434L31.8266 36.4934C30.6599 37.03 29.3649 37.3334 27.9999 37.3334ZM36.1666 31.5H32.6666V33.8334H36.1666V37.3334H38.4999V33.8334H41.9999V31.5H38.4999V28H36.1666V31.5Z" fill="white"/>
</g>
<defs>
<linearGradient id="paint0_linear_1_47" x1="0" y1="28" x2="56" y2="28" gradientUnits="userSpaceOnUse">
<stop stop-color="#4481EB"/>
<stop offset="1" stop-color="#04BEFE"/>
</linearGradient>
<clipPath id="clip0_1_47">
<rect width="28" height="28" fill="white" transform="translate(14 14)"/>
</clipPath>
</defs>
</svg>
