<svg width="28" height="28" viewBox="0 0 28 28" fill="none" xmlns="http://www.w3.org/2000/svg">
<g clip-path="url(#clip0_1_630)">
<path d="M7.46665 10.7333H7.69998C8.59831 10.7333 9.33331 11.4683 9.33331 12.3667V20.5333C9.33331 21.4317 8.59831 22.1667 7.69998 22.1667H7.46665C6.56831 22.1667 5.83331 21.4317 5.83331 20.5333V12.3667C5.83331 11.4683 6.56831 10.7333 7.46665 10.7333ZM14 5.83334C14.8983 5.83334 15.6333 6.56834 15.6333 7.46667V20.5333C15.6333 21.4317 14.8983 22.1667 14 22.1667C13.1016 22.1667 12.3666 21.4317 12.3666 20.5333V7.46667C12.3666 6.56834 13.1016 5.83334 14 5.83334ZM20.5333 15.1667C21.4316 15.1667 22.1666 15.9017 22.1666 16.8V20.5333C22.1666 21.4317 21.4316 22.1667 20.5333 22.1667C19.635 22.1667 18.9 21.4317 18.9 20.5333V16.8C18.9 15.9017 19.635 15.1667 20.5333 15.1667Z" fill="#A3AED0"/>
</g>
<defs>
<clipPath id="clip0_1_630">
<rect width="28" height="28" fill="white"/>
</clipPath>
</defs>
</svg>
